PathFileType	4	(X/Y/Z)	RBDS010static.trc
DataRate	CameraRate	NumFrames	NumMarkers	Units	OrigDataRate	OrigDataStartFrame	OrigNumFrames
150.000000	150.000000	4	48	mm	150.000000	0	150
Frame#	Time	L.Ankle			L.Ankle.Medial			L.ASIS			L.GTR			L.Heel.Bottom			L.Heel.Lateral			L.Heel.Top			L.HF			L.Iliac.Crest			L.Knee			L.Knee.Medial			L.MT1			L.MT2			L.MT5			L.PSIS			L.Shank.Bottom.Lateral			L.Shank.Bottom.Medial			L.Shank.Top.Lateral			L.Shank.Top.Medial			L.Thigh.Bottom.Lateral			L.Thigh.Bottom.Medial			L.Thigh.Top.Lateral			L.Thigh.Top.Medial			L.TT			R.Ankle			R.Ankle.Medial			R.ASIS			R.GTR			R.Heel.Bottom			R.Heel.Lateral			R.Heel.Top			R.HF			R.Iliac.Crest			R.Knee			R.Knee.Medial			R.MT1			R.MT2			R.MT5			R.PSIS			R.Shank.Bottom.Lateral			R.Shank.Bottom.Medial			R.Shank.Top.Lateral			R.Shank.Top.Medial			R.Thigh.Bottom.Lateral			R.Thigh.Bottom.Medial			R.Thigh.Top.Lateral			R.Thigh.Top.Medial			R.TT			
		X1	Y1	Z1	X2	Y2	Z2	X3	Y3	Z3	X4	Y4	Z4	X5	Y5	Z5	X6	Y6	Z6	X7	Y7	Z7	X8	Y8	Z8	X9	Y9	Z9	X10	Y10	Z10	X11	Y11	Z11	X12	Y12	Z12	X13	Y13	Z13	X14	Y14	Z14	X15	Y15	Z15	X16	Y16	Z16	X17	Y17	Z17	X18	Y18	Z18	X19	Y19	Z19	X20	Y20	Z20	X21	Y21	Z21	X22	Y22	Z22	X23	Y23	Z23	X24	Y24	Z24	X25	Y25	Z25	X26	Y26	Z26	X27	Y27	Z27	X28	Y28	Z28	X29	Y29	Z29	X30	Y30	Z30	X31	Y31	Z31	X32	Y32	Z32	X33	Y33	Z33	X34	Y34	Z34	X35	Y35	Z35	X36	Y36	Z36	X37	Y37	Z37	X38	Y38	Z38	X39	Y39	Z39	X40	Y40	Z40	X41	Y41	Z41	X42	Y42	Z42	X43	Y43	Z43	X44	Y44	Z44	X45	Y45	Z45	X46	Y46	Z46	X47	Y47	Z47	X48	Y48	Z48	

1	0	710.4996948242188	102.1428375244141	1038.5927734375	728.4028930664063	118.3099212646484	1118.405517578125	815.2660522460938	980.9236450195313	1090.8505859375	707.1085205078125	892.3121948242188	1043.414916992188	637.5571899414063	39.70741271972656	1083.026000976563	666.5764770507813	56.42770004272461	1038.462646484375	647.4017333984375	90.3421630859375	1084.289916992188	696.0265502929688	448.9959716796875	1029.156127929688	766.3554077148438	1065.576782226563	1060.9140625	692.71875	512.4326171875	1033.31884765625	716.74267578125	495.5753479003906	1157.528930664063	852.0181274414063	56.03341674804688	1125.261962890625	864.440673828125	69.29148101806641	1079.703491210938	829.052490234375	50.95081329345703	1011.226867675781	647.8690795898438	1028.964965820313	1165.8271484375	684.1729125976563	171.5510864257813	1034.336669921875	656.1090698242188	170.8479766845703	1080.53076171875	670.1692504882813	249.8929138183594	1025.091430664063	642.0668334960938	250.2705993652344	1071.20556640625	694.839111328125	598.1434936523438	1026.16259765625	645.822265625	589.6277465820313	1079.183349609375	676.6537475585938	706.697021484375	1030.076782226563	632.1636352539063	699.5042724609375	1081.643920898438	756.221435546875	430.6653137207031	1065.9091796875	706.5025634765625	115.8765106201172	1402.692260742188	724.726806640625	120.1882400512695	1319.9970703125	819.1607666015625	977.2822265625	1321.928588867188	717.638671875	886.726318359375	1377.034301757813	632.6054077148438	40.60112380981445	1369.143188476563	660.9284057617188	61.59772872924805	1412.286865234375	641.84765625	89.20423889160156	1367.455322265625	720.462646484375	445.5841064453125	1394.425048828125	751.884033203125	1057.916137695313	1360.126953125	720.692138671875	510.3715515136719	1389.707641601563	735.4971923828125	490.9441223144531	1266.787963867188	842.4710083007813	57.97628784179688	1323.565185546875	859.5669555664063	73.07839965820313	1374.174560546875	824.2607421875	50.88750839233398	1438.202880859375	650.15087890625	1028.54736328125	1262.554931640625	697.0550537109375	188.2686920166016	1408.310791015625	658.1712646484375	188.3311309814453	1375.040771484375	691.8096923828125	272.9482421875	1411.971435546875	651.7244873046875	268.7990417480469	1376.364013671875	717.0758056640625	611.3616943359375	1396.137329101563	663.20947265625	603.4818115234375	1346.002197265625	700.6073608398438	719.8783569335938	1392.285888671875	650.2202758789063	713.6133422851563	1345.500366210938	780.3102416992188	436.7188415527344	1357.843017578125	
2	0.006666666666666667	710.5095825195313	102.1478729248047	1038.593505859375	728.4086303710938	118.3085403442383	1118.412841796875	815.2884521484375	980.9228515625	1090.843627929688	707.1240844726563	892.3093872070313	1043.408935546875	637.53662109375	39.72507095336914	1083.011474609375	666.5823974609375	56.42580795288086	1038.465942382813	647.3994140625	90.34597015380859	1084.282958984375	696.02978515625	449.0000610351563	1029.14599609375	766.3811645507813	1065.573608398438	1060.900146484375	692.7152709960938	512.4368896484375	1033.305297851563	716.7457885742188	495.5715637207031	1157.52880859375	852.015380859375	56.03773880004883	1125.262817382813	864.4400024414063	69.30036926269531	1079.69970703125	829.0597534179688	50.95840072631836	1011.225402832031	647.8755493164063	1028.96240234375	1165.818603515625	684.18701171875	171.5479278564453	1034.33837890625	656.1102294921875	170.8544616699219	1080.527099609375	670.1763916015625	249.8943786621094	1025.093872070313	642.067626953125	250.2696685791016	1071.200073242188	694.8567504882813	598.1354370117188	1026.155151367188	645.8316040039063	589.6337890625	1079.164306640625	676.6648559570313	706.70263671875	1030.063354492188	632.1744384765625	699.51025390625	1081.634155273438	756.2387084960938	430.670654296875	1065.900512695313	706.507568359375	115.878288269043	1402.699951171875	724.7094116210938	120.1925048828125	1320.002563476563	819.1708984375	977.275390625	1321.916870117188	717.6467895507813	886.7240600585938	1377.019165039063	632.606689453125	40.60588455200195	1369.144653320313	660.9328002929688	61.59679412841797	1412.2822265625	641.8477172851563	89.20412445068359	1367.44921875	720.4697265625	445.5888671875	1394.427124023438	751.8936767578125	1057.917724609375	1360.09765625	720.6890258789063	510.3689880371094	1389.707885742188	735.4988403320313	490.9270324707031	1266.7861328125	842.4707641601563	57.96691131591797	1323.556396484375	859.572509765625	73.07839202880859	1374.162353515625	824.2610473632813	50.88564300537109	1438.199462890625	650.1605224609375	1028.547607421875	1262.53564453125	697.0501708984375	188.2699279785156	1408.310546875	658.1692504882813	188.3328704833984	1375.03466796875	691.811767578125	272.9529113769531	1411.956176757813	651.7149047851563	268.8008422851563	1376.356323242188	717.0811157226563	611.3696899414063	1396.12890625	663.2139282226563	603.4801025390625	1345.998657226563	700.6087036132813	719.8832397460938	1392.273193359375	650.221923828125	713.6192016601563	1345.484619140625	780.3173217773438	436.7145385742188	1357.827026367188	
3	0.01333333333333333	710.5150756835938	102.1401901245117	1038.601806640625	728.4051513671875	118.3156280517578	1118.4052734375	815.2986450195313	980.92822265625	1090.836181640625	707.141845703125	892.3120727539063	1043.39453125	637.5604858398438	39.71202087402344	1083.02490234375	666.5888061523438	56.42922592163086	1038.46435546875	647.4007568359375	90.34974670410156	1084.286376953125	696.0445556640625	448.9978332519531	1029.143676757813	766.4134521484375	1065.573852539063	1060.8955078125	692.7211303710938	512.4317016601563	1033.304321289063	716.753173828125	495.5738220214844	1157.527221679688	852.0210571289063	56.04045486450195	1125.260864257813	864.44775390625	69.29169464111328	1079.706298828125	829.0628051757813	50.95083236694336	1011.226013183594	647.883056640625	1028.971435546875	1165.804443359375	684.1910400390625	171.5528411865234	1034.328857421875	656.108642578125	170.8558654785156	1080.530395507813	670.189697265625	249.8951263427734	1025.08349609375	642.0711059570313	250.2738189697266	1071.1865234375	694.8546752929688	598.1412353515625	1026.149047851563	645.838134765625	589.6370239257813	1079.162109375	676.669921875	706.705078125	1030.055908203125	632.1900634765625	699.5114135742188	1081.624145507813	756.2606201171875	430.6844787597656	1065.904907226563	706.5062866210938	115.8846664428711	1402.70263671875	724.7188720703125	120.2002258300781	1320.002563476563	819.1861572265625	977.2775268554688	1321.904541015625	717.6486206054688	886.732421875	1377.014404296875	632.6109008789063	40.60003662109375	1369.14111328125	660.92919921875	61.60763931274414	1412.2861328125	641.8474731445313	89.20406341552734	1367.441284179688	720.4745483398438	445.5809936523438	1394.421020507813	751.8937377929688	1057.91357421875	1360.093872070313	720.6932373046875	510.3688659667969	1389.690551757813	735.507568359375	490.9356994628906	1266.782348632813	842.472412109375	57.96969604492188	1323.5556640625	859.5681762695313	73.07598876953125	1374.173706054688	824.255859375	50.88577651977539	1438.199829101563	650.1661376953125	1028.552734375	1262.524536132813	697.0612182617188	188.2731323242188	1408.309814453125	658.1690063476563	188.3339080810547	1375.034545898438	691.8167114257813	272.9552307128906	1411.960083007813	651.717041015625	268.80126953125	1376.362915039063	717.0771484375	611.3745727539063	1396.121704101563	663.2117309570313	603.4920043945313	1345.991821289063	700.6243286132813	719.8827514648438	1392.267333984375	650.2291870117188	713.6217041015625	1345.478393554688	780.3154907226563	436.7145080566406	1357.819580078125	
4	0.02	710.5070190429688	102.1512069702148	1038.600830078125	728.4047241210938	118.3208389282227	1118.40380859375	815.3217163085938	980.9242553710938	1090.826049804688	707.171875	892.3125	1043.38916015625	637.5364379882813	39.72838592529297	1083.017578125	666.58544921875	56.42387771606445	1038.465576171875	647.4039916992188	90.34899139404297	1084.283569335938	696.0503540039063	449.0057373046875	1029.134033203125	766.4291381835938	1065.574584960938	1060.89013671875	692.73291015625	512.4279174804688	1033.288696289063	716.75732421875	495.5757141113281	1157.517211914063	852.02685546875	56.03011322021484	1125.262329101563	864.4464111328125	69.29408264160156	1079.7041015625	829.0679321289063	50.95140838623047	1011.222290039063	647.9038696289063	1028.964477539063	1165.799682617188	684.2005004882813	171.5450134277344	1034.332153320313	656.1033935546875	170.8634338378906	1080.51318359375	670.1945190429688	249.8929595947266	1025.072265625	642.082275390625	250.2871398925781	1071.17822265625	694.8787841796875	598.1400146484375	1026.143432617188	645.8480224609375	589.6267700195313	1079.15771484375	676.6843872070313	706.708984375	1030.044067382813	632.1979370117188	699.5179443359375	1081.61328125	756.258544921875	430.6802978515625	1065.89111328125	706.5067749023438	115.8866729736328	1402.69482421875	724.7240600585938	120.1854705810547	1319.996337890625	819.1923217773438	977.2871704101563	1321.8955078125	717.6586303710938	886.728271484375	1377.0078125	632.6090698242188	40.59457397460938	1369.136352539063	660.9325561523438	61.60380554199219	1412.276611328125	641.8568115234375	89.20060729980469	1367.444458007813	720.4818115234375	445.5886535644531	1394.416015625	751.8966064453125	1057.91552734375	1360.073120117188	720.7024536132813	510.3761901855469	1389.695556640625	735.5233154296875	490.9424743652344	1266.76318359375	842.4856567382813	57.96412658691406	1323.552368164063	859.57177734375	73.07218933105469	1374.156616210938	824.263916015625	50.89241790771484	1438.201782226563	650.1719360351563	1028.548461914063	1262.5185546875	697.0662841796875	188.2734832763672	1408.304077148438	658.1781005859375	188.3406677246094	1375.035766601563	691.8256225585938	272.9573059082031	1411.955444335938	651.7279663085938	268.8075866699219	1376.346923828125	717.087890625	611.3716430664063	1396.115478515625	663.2265014648438	603.4834594726563	1345.98583984375	700.6280517578125	719.8829956054688	1392.258178710938	650.2313232421875	713.6255493164063	1345.471069335938	780.3276977539063	436.718017578125	1357.829956054688	
